<svg xmlns="http://www.w3.org/2000/svg" xmlns:xlink="http://www.w3.org/1999/xlink" width="1920" height="1080" viewBox="0 0 1920 1080">
  <defs>
    <clipPath id="clip-Web_1920_1">
      <rect width="1920" height="1080"/>
    </clipPath>
  </defs>
  <g id="Web_1920_1" data-name="Web 1920 – 1" clip-path="url(#clip-Web_1920_1)">
    <rect width="1920" height="1080" fill="#fff"/>
    <ellipse id="Ellipse_1" data-name="Ellipse 1" cx="463" cy="440" rx="463" ry="440" transform="translate(497 100)" fill="#0c0c0c"/>
    <path id="Ellipse_1_-_Contour" data-name="Ellipse 1 - Contour" d="M463,1c-15.761,0-31.656.763-47.243,2.267C400.4,4.75,384.961,6.988,369.88,9.921,354.995,12.816,340.1,16.456,325.6,20.74c-14.334,4.237-28.616,9.2-42.449,14.765a470.156,470.156,0,0,0-78.48,40.481A461.07,461.07,0,0,0,136.3,129.6a447.916,447.916,0,0,0-56.41,64.973C71.6,206.236,63.811,218.414,56.75,230.766A429.8,429.8,0,0,0,37.3,269.139a419.854,419.854,0,0,0,0,341.723A429.812,429.812,0,0,0,56.75,649.234c7.061,12.352,14.846,24.53,23.138,36.195A447.916,447.916,0,0,0,136.3,750.4a461.07,461.07,0,0,0,68.374,53.611,470.156,470.156,0,0,0,78.48,40.481c13.833,5.56,28.115,10.528,42.449,14.765,14.5,4.285,29.393,7.925,44.279,10.82,15.081,2.933,30.516,5.171,45.877,6.654C431.344,878.237,447.239,879,463,879s31.656-.763,47.243-2.267c15.361-1.482,30.8-3.721,45.877-6.654,14.885-2.895,29.783-6.535,44.279-10.82,14.334-4.237,28.616-9.2,42.449-14.765a470.166,470.166,0,0,0,78.48-40.481A461.077,461.077,0,0,0,789.7,750.4a447.908,447.908,0,0,0,56.41-64.973c8.293-11.665,16.078-23.843,23.138-36.195A429.812,429.812,0,0,0,888.7,610.861a419.853,419.853,0,0,0,0-341.723,429.8,429.8,0,0,0-19.451-38.373c-7.061-12.352-14.846-24.53-23.138-36.195A447.908,447.908,0,0,0,789.7,129.6a461.077,461.077,0,0,0-68.374-53.611,470.166,470.166,0,0,0-78.48-40.481c-13.833-5.56-28.115-10.528-42.449-14.765-14.5-4.285-29.393-7.925-44.279-10.82C541.039,6.988,525.6,4.75,510.243,3.267,494.656,1.763,478.761,1,463,1m0-1C718.708,0,926,196.995,926,440S718.708,880,463,880,0,683.005,0,440,207.292,0,463,0Z" transform="translate(497 100)" fill="#707070"/>
    <text id="F_G" transform="translate(624 661)" fill="#5cddbd" font-size="410" font-family="Bahnschrift"><tspan x="0" y="0">F_G</tspan></text>
  </g>
</svg>
